<?xml version="1.0" standalone="no"?>
<!DOCTYPE svg PUBLIC "-//W3C//DTD SVG 20010904//EN"
 "http://www.w3.org/TR/2001/REC-SVG-20010904/DTD/svg10.dtd">
<svg version="1.0" xmlns="http://www.w3.org/2000/svg"
 width="500.000000pt" height="500.000000pt" viewBox="0 0 500.000000 500.000000"
 preserveAspectRatio="xMidYMid meet">

<g transform="translate(0.000000,500.000000) scale(0.100000,-0.100000)"
fill="#000000" stroke="none">
<path d="M0 2500 l0 -2500 2500 0 2500 0 0 2500 0 2500 -2500 0 -2500 0 0
-2500z m2170 1989 c25 -5 85 -29 135 -51 74 -34 103 -42 167 -46 93 -5 145 6
260 59 138 63 258 64 381 2 66 -33 118 -82 181 -173 94 -134 181 -185 343
-200 155 -14 221 -40 304 -117 89 -83 124 -163 139 -318 15 -167 67 -257 199
-350 135 -94 191 -176 214 -311 15 -88 0 -166 -54 -284 -43 -93 -44 -97 -44
-200 0 -104 1 -106 48 -214 59 -132 70 -215 42 -311 -35 -122 -92 -196 -208
-273 -63 -41 -125 -109 -157 -172 -20 -39 -40 -121 -40 -170 -1 -248 -199
-440 -451 -440 -62 0 -163 -37 -226 -83 -36 -27 -77 -71 -110 -118 -85 -124
-152 -174 -276 -205 -92 -24 -173 -14 -288 35 -125 53 -176 64 -262 59 -58 -4
-92 -13 -163 -46 -146 -67 -215 -76 -329 -47 -117 31 -186 84 -282 221 -83
116 -178 168 -343 185 -154 15 -230 49 -314 138 -74 80 -116 191 -116 306 0
124 -79 257 -201 342 -120 82 -175 155 -205 268 -28 105 -15 192 49 330 41 88
42 93 42 195 0 102 -1 107 -42 195 -53 112 -67 179 -60 269 12 134 81 237 231
341 111 77 186 214 186 339 0 207 148 388 350 426 29 5 72 10 95 10 62 0 162
34 223 75 31 21 71 62 95 97 122 176 231 244 392 247 28 0 70 -4 95 -10z"/>
<path d="M2230 3933 c-14 -3 -29 -8 -33 -12 -12 -11 30 -323 45 -337 10 -9 30
-10 77 -3 108 15 157 58 147 128 -3 19 -15 44 -26 56 -17 18 -19 26 -10 50 13
35 -3 89 -33 110 -21 15 -107 19 -167 8z m128 -62 c25 -16 10 -55 -25 -65 -21
-6 -33 -15 -33 -27 0 -33 10 -46 34 -42 38 8 68 -14 64 -45 -2 -22 -11 -30
-46 -41 -24 -7 -45 -12 -47 -10 -2 2 -8 42 -14 89 -6 47 -14 100 -17 118 -5
31 -4 32 33 32 21 0 44 -4 51 -9z"/>
<path d="M2663 3932 c-7 -4 -24 -79 -39 -166 -21 -130 -24 -160 -13 -167 18
-11 144 -32 199 -33 42 -1 45 1 48 26 4 30 5 29 -102 48 -33 5 -61 11 -62 13
-2 2 5 50 14 107 l18 105 29 -1 c17 0 50 -2 75 -5 40 -4 45 -2 48 18 4 24 -3
27 -98 43 -36 6 -74 12 -85 15 -11 2 -26 1 -32 -3z"/>
<path d="M1891 3827 c-23 -11 -23 -12 -16 -117 l7 -105 -75 73 -76 73 -30 -16
c-17 -8 -31 -22 -31 -29 0 -16 244 -249 265 -254 23 -5 33 30 24 83 -14 86 -9
92 23 30 17 -33 35 -63 41 -67 12 -8 67 18 67 31 0 5 -32 77 -72 160 -74 156
-78 161 -127 138z"/>
<path d="M3034 3678 l-76 -152 23 -18 c12 -11 29 -18 38 -16 12 2 122 195 144
252 6 16 72 -29 75 -51 2 -11 -4 -28 -14 -37 -15 -16 -27 -15 -71 1 -7 3 -20
-10 -29 -29 -14 -31 -14 -42 -3 -103 12 -57 19 -72 39 -82 44 -22 47 7 14 120
-4 14 1 17 31 17 77 0 132 97 89 158 -16 23 -142 92 -169 92 -9 0 -43 -56 -91
-152z"/>
<path d="M2726 3758 c-10 -37 -8 -39 31 -36 28 2 39 8 41 22 8 38 -61 52 -72
14z"/>
<path d="M1755 3517 c40 -84 58 -113 74 -115 53 -8 26 81 -48 161 -79 85 -84
76 -26 -46z"/>
<path d="M3412 3441 c-62 -71 -112 -136 -112 -144 0 -19 35 -50 53 -45 23 5
238 258 231 271 -14 25 -38 47 -49 47 -7 0 -62 -58 -123 -129z"/>
<path d="M1416 3538 c-8 -12 -12 -27 -8 -34 4 -7 54 -67 112 -133 104 -120
130 -137 158 -109 25 25 9 54 -95 173 -114 130 -138 145 -167 103z"/>
<path d="M1215 3310 c-37 -15 -125 -128 -125 -160 0 -16 258 -200 281 -200 16
0 38 30 39 52 0 11 -44 47 -120 98 l-120 81 17 25 c23 35 49 47 73 34 21 -11
28 -64 10 -75 -17 -11 -11 -23 23 -44 29 -18 43 -20 103 -14 68 6 93 20 94 51
0 10 -17 13 -70 10 l-70 -3 0 40 c0 49 -22 83 -66 101 -38 16 -41 16 -69 4z"/>
<path d="M3632 3269 c-49 -25 -99 -81 -110 -124 -29 -108 69 -199 177 -166
122 36 186 143 142 235 -37 75 -123 97 -209 55z m139 -49 c34 -19 25 -67 -24
-115 -54 -55 -115 -75 -152 -51 -47 31 -22 99 53 147 48 30 89 37 123 19z"/>
<path d="M2366 2839 c-19 -19 -19 -19 2 -19 15 0 22 6 22 20 0 24 0 24 -24 -1z"/>
<path d="M2855 2684 c4 -32 8 -66 8 -74 0 -8 4 -21 10 -28 7 -9 6 -11 -7 -6
-38 15 -11 -19 52 -65 63 -46 71 -56 96 -120 15 -39 31 -92 36 -118 4 -27 8
-36 9 -22 2 41 22 89 37 89 34 0 103 -184 109 -289 5 -86 10 -98 15 -39 7 82
2 153 -14 201 -19 57 -19 60 -3 54 9 -3 11 8 9 45 -6 75 18 93 84 62 36 -17
69 -13 61 9 -2 6 -17 11 -33 10 -60 -4 -103 18 -159 83 -61 69 -67 87 -30 82
38 -5 30 16 -10 24 -40 9 -95 35 -95 46 0 15 16 31 40 41 24 9 24 10 -7 10
-33 1 -55 24 -46 48 3 10 -3 10 -27 2 -30 -11 -65 -9 -119 7 -24 7 -24 7 -16
-52z m104 -90 c3 -14 -1 -14 -28 5 -43 31 -47 43 -9 27 18 -8 35 -22 37 -32z
m226 -294 c10 -11 13 -20 7 -20 -6 0 -16 9 -22 20 -6 11 -9 20 -7 20 2 0 12
-9 22 -20z"/>
<path d="M1711 2614 c0 -11 3 -14 6 -6 3 7 2 16 -1 19 -3 4 -6 -2 -5 -13z"/>
<path d="M1970 2600 c0 -5 7 -7 15 -4 8 4 15 8 15 10 0 2 -7 4 -15 4 -8 0 -15
-4 -15 -10z"/>
<path d="M1687 2593 c-3 -5 -1 -17 4 -28 7 -17 8 -17 8 8 1 27 -4 34 -12 20z"/>
<path d="M1867 2563 c-4 -3 -7 -20 -7 -37 1 -33 11 -24 24 22 7 21 -3 30 -17
15z"/>
<path d="M1724 2478 c3 -14 9 -33 12 -42 3 -9 1 -16 -5 -16 -6 0 -11 -4 -11
-10 0 -5 6 -7 14 -4 8 3 25 -12 45 -41 24 -35 26 -43 12 -35 -18 9 -19 8 -10
-22 5 -20 5 -36 -2 -44 -8 -9 -4 -16 13 -25 32 -17 98 -71 98 -80 0 -4 -10
-10 -22 -12 -13 -2 -4 -5 19 -6 23 0 48 -4 57 -7 21 -8 20 -33 -1 -41 -14 -5
-10 -9 17 -14 37 -8 64 3 115 45 21 18 25 25 14 26 -9 0 -19 9 -22 21 -5 19
-4 20 19 4 20 -13 28 -14 40 -5 19 17 8 30 -25 30 -61 0 -139 50 -191 122 -24
33 -28 35 -33 18 -3 -11 -12 -20 -21 -20 -16 0 -106 113 -106 134 0 6 -8 20
-17 31 -15 19 -15 19 -9 -7z m301 -326 c-3 -3 -11 0 -18 7 -9 10 -8 11 6 5 10
-3 15 -9 12 -12z"/>
<path d="M2196 2192 c-60 -64 -86 -94 -57 -67 52 50 176 185 170 185 -2 0 -53
-53 -113 -118z"/>
<path d="M2647 2245 c-24 -50 -20 -58 4 -12 11 22 19 41 17 43 -3 2 -12 -12
-21 -31z"/>
<path d="M1687 2254 c-4 -4 -4 -10 -1 -15 6 -10 34 0 34 12 0 10 -24 12 -33 3z"/>
<path d="M2587 2132 c-33 -54 -120 -144 -177 -185 -24 -17 -23 -17 8 0 44 23
160 147 190 201 34 61 21 51 -21 -16z"/>
<path d="M3230 2176 c0 -8 5 -18 10 -21 6 -3 10 3 10 14 0 12 -4 21 -10 21 -5
0 -10 -6 -10 -14z"/>
<path d="M2369 2153 c-16 -19 -132 -119 -169 -146 -24 -17 -24 -17 8 0 32 17
193 162 181 163 -4 0 -13 -7 -20 -17z"/>
<path d="M3008 2081 c-30 -62 -34 -81 -18 -81 17 0 38 43 45 93 4 26 6 47 4
46 -2 0 -16 -26 -31 -58z"/>
<path d="M2656 2072 c-3 -3 -6 -11 -6 -19 0 -17 24 -17 39 1 9 11 7 15 -8 19
-11 3 -22 2 -25 -1z"/>
<path d="M1725 2048 c-3 -13 -6 -40 -8 -62 -2 -40 2 -45 58 -63 17 -6 39 -14
50 -18 l20 -7 -20 13 c-69 41 -82 84 -40 123 22 20 23 25 9 30 -34 13 -64 6
-69 -16z"/>
<path d="M3347 2014 c-4 -4 -7 -14 -7 -23 0 -11 3 -12 11 -4 6 6 10 16 7 23
-2 6 -7 8 -11 4z"/>
<path d="M3232 1970 c-3 -40 -21 -79 -22 -45 -1 16 -2 17 -9 5 -5 -8 -8 -18
-8 -21 1 -3 -2 -12 -8 -20 -5 -8 -2 -6 9 6 10 11 20 19 22 17 15 -12 25 10 21
48 -3 39 -4 40 -5 10z"/>
<path d="M2130 1970 c-19 -11 -31 -19 -27 -20 11 0 67 29 67 35 0 7 -1 7 -40
-15z"/>
<path d="M2038 1933 c7 -3 16 -2 19 1 4 3 -2 6 -13 5 -11 0 -14 -3 -6 -6z"/>
<path d="M1943 1923 c15 -2 39 -2 55 0 15 2 2 4 -28 4 -30 0 -43 -2 -27 -4z"/>
<path d="M2350 1915 c-14 -8 -20 -14 -14 -15 5 0 19 7 30 15 24 18 16 19 -16
0z"/>
<path d="M2290 1890 c-8 -5 -10 -10 -5 -10 6 0 17 5 25 10 8 5 11 10 5 10 -5
0 -17 -5 -25 -10z"/>
<path d="M2220 1865 c-19 -7 -28 -14 -20 -14 8 0 29 6 45 14 39 17 21 18 -25
0z"/>
<path d="M1930 1850 c8 -5 20 -10 25 -10 6 0 3 5 -5 10 -8 5 -19 10 -25 10 -5
0 -3 -5 5 -10z"/>
<path d="M3128 1853 c7 -3 16 -2 19 1 4 3 -2 6 -13 5 -11 0 -14 -3 -6 -6z"/>
<path d="M2158 1843 c7 -3 16 -2 19 1 4 3 -2 6 -13 5 -11 0 -14 -3 -6 -6z"/>
<path d="M2118 1833 c7 -3 16 -2 19 1 4 3 -2 6 -13 5 -11 0 -14 -3 -6 -6z"/>
<path d="M1320 1754 c-54 -34 -86 -68 -42 -45 17 9 25 7 46 -14 14 -14 31 -25
38 -25 21 0 58 30 58 46 0 19 -28 74 -38 74 -4 0 -32 -16 -62 -36z m78 -33
c-4 -32 -32 -39 -59 -15 -25 22 -24 26 8 46 34 20 55 7 51 -31z"/>
<path d="M3597 1721 c15 -13 20 -25 17 -42 -5 -22 -4 -23 9 -6 14 17 16 17 46
0 32 -18 32 -18 52 6 20 25 26 61 9 61 -5 0 -10 -11 -10 -25 0 -31 -20 -41
-50 -25 -16 8 -19 17 -14 33 6 19 5 20 -9 9 -12 -10 -21 -11 -36 -3 -31 17
-38 12 -14 -8z"/>
<path d="M1455 1670 c-4 -6 -3 -16 3 -22 6 -6 12 -6 17 2 4 6 3 16 -3 22 -6 6
-12 6 -17 -2z"/>
<path d="M1378 1601 c-18 -17 -28 -30 -23 -30 15 0 70 47 63 54 -3 4 -21 -7
-40 -24z"/>
<path d="M3542 1598 c-28 -28 0 -88 41 -88 22 0 37 31 30 60 -5 19 -3 21 16
15 11 -3 21 -2 21 3 0 21 -88 30 -108 10z m53 -29 c4 -12 2 -26 -3 -31 -17
-17 -42 -1 -42 27 0 32 35 35 45 4z"/>
<path d="M1465 1570 c-4 -6 -4 -23 0 -39 7 -34 -7 -47 -28 -26 -22 21 -30 19
-17 -5 6 -12 21 -20 37 -20 24 0 25 2 20 40 -6 45 9 63 29 35 8 -10 17 -16 20
-12 10 10 -16 37 -37 37 -10 0 -21 -5 -24 -10z"/>
<path d="M3470 1500 c30 -27 60 -49 65 -49 6 0 -14 22 -44 49 -30 28 -60 50
-65 50 -6 0 14 -23 44 -50z"/>
<path d="M1520 1460 c-11 -11 -20 -24 -20 -30 0 -16 46 -41 64 -34 12 5 16 0
16 -17 0 -33 17 -11 25 32 11 61 -42 92 -85 49z m67 -16 c6 -15 -11 -34 -32
-34 -5 0 -16 4 -24 9 -21 14 -5 41 24 41 14 0 28 -7 32 -16z"/>
<path d="M3409 1440 c-6 -16 -13 -30 -15 -30 -3 0 -16 12 -29 28 -13 15 -26
25 -29 21 -8 -8 87 -118 97 -112 5 3 4 10 -2 16 -18 18 -12 27 19 27 17 0 30
5 30 10 0 6 -14 10 -31 10 -29 0 -30 2 -24 30 4 17 4 30 0 30 -3 0 -11 -13
-16 -30z"/>
<path d="M1649 1353 c-23 -47 -23 -49 3 -25 46 41 87 17 54 -33 -9 -14 -13
-25 -8 -25 14 0 34 45 30 66 -2 12 -13 20 -31 22 -15 2 -25 8 -22 13 4 5 2 9
-3 9 -5 0 -15 -12 -23 -27z"/>
<path d="M3286 1358 c-9 -12 -16 -29 -16 -38 0 -19 28 -60 40 -60 38 0 56 91
21 110 -26 14 -28 13 -45 -12z m49 -18 c7 -23 -12 -63 -28 -57 -17 5 -21 45
-7 63 17 19 27 18 35 -6z"/>
<path d="M3126 1308 c-23 -33 -20 -56 14 -89 33 -34 62 -33 93 3 24 29 12 36
-16 10 -13 -12 -30 -22 -39 -22 -25 0 -50 36 -46 67 2 22 11 31 38 40 l35 12
-32 0 c-22 1 -37 -6 -47 -21z"/>
<path d="M1788 1294 c-11 -22 -10 -28 7 -40 10 -8 25 -14 32 -14 31 0 10 -19
-24 -22 -33 -3 -38 -7 -41 -30 -2 -19 2 -28 17 -33 29 -9 35 -3 75 68 32 57
34 63 19 79 -25 28 -71 23 -85 -8z m66 10 c33 -13 11 -44 -30 -44 -20 0 -30
30 -13 41 17 10 23 11 43 3z m-41 -100 c11 -11 -5 -34 -24 -34 -18 0 -26 20
-12 33 8 9 28 9 36 1z"/>
<path d="M2005 1228 c-15 -42 -35 -101 -35 -104 0 -2 5 -4 10 -4 6 0 10 6 10
14 0 23 50 36 50 14 1 -7 7 -26 15 -43 l15 -30 -6 38 c-3 21 -7 44 -10 51 -3
7 8 18 23 26 15 7 23 15 16 17 -6 2 -25 -3 -42 -11 -41 -22 -44 -21 -36 14 6
29 -1 42 -10 18z"/>
<path d="M2948 1171 c-9 -15 -15 -17 -25 -9 -19 15 -15 -1 8 -42 l20 -35 -5
31 c-9 58 36 74 59 22 11 -24 14 -28 15 -13 0 26 -27 65 -45 65 -8 0 -20 -9
-27 -19z"/>
<path d="M2325 1171 c-7 -12 12 -24 25 -16 11 7 4 25 -10 25 -5 0 -11 -4 -15
-9z"/>
<path d="M2680 1160 c0 -17 -10 -30 -30 -42 -53 -30 -36 -88 27 -88 l33 0 -6
63 c-7 66 -23 113 -24 67z m10 -86 c0 -29 -3 -35 -16 -30 -9 3 -20 6 -25 6
-10 0 -12 43 -2 53 3 4 15 7 25 7 14 0 18 -8 18 -36z"/>
<path d="M2150 1150 c-42 -42 -4 -108 53 -92 18 5 16 7 -13 12 -22 3 -36 11
-38 22 -3 15 2 17 25 12 36 -7 63 18 46 44 -15 25 -49 26 -73 2z m60 -14 c0
-19 -14 -28 -34 -20 -25 10 -19 34 9 34 15 0 25 -6 25 -14z"/>
<path d="M2777 1132 c-21 -23 -22 -56 -2 -72 19 -16 45 -9 59 15 6 11 12 22
13 24 2 2 9 -2 18 -9 24 -20 17 3 -10 33 -30 31 -55 34 -78 9z m53 -16 c0 -28
-12 -46 -31 -46 -13 0 -19 7 -19 23 0 13 3 27 7 30 12 13 43 7 43 -7z"/>
<path d="M2396 1107 c-5 -10 -4 -32 1 -50 8 -30 12 -32 56 -33 37 -1 47 2 42
13 -3 8 -5 29 -6 46 l-1 32 -12 -35 c-10 -27 -18 -35 -37 -35 -20 0 -25 6 -30
40 -4 31 -7 36 -13 22z"/>
<path d="M2328 1104 c-5 -4 -8 -21 -8 -38 0 -45 -13 -60 -45 -52 -20 5 -26 3
-23 -6 3 -7 19 -14 36 -16 29 -3 32 0 42 38 12 44 10 87 -2 74z"/>
</g>
</svg>
